<svg width="90" height="18" viewBox="0 0 90 18" fill="none" xmlns="http://www.w3.org/2000/svg">
<path d="M0.988912 17V1.32833H10.4542V3.67669H3.7686V8.1098H9.47174V10.4582H3.7686V17H0.988912ZM17.4068 17.2876C16.4323 17.2876 15.5217 17.0479 14.675 16.5687C13.8284 16.0734 13.1414 15.3705 12.6142 14.4599C12.0871 13.5334 11.8235 12.4231 11.8235 11.1291C11.8235 9.81915 12.0871 8.70887 12.6142 7.79829C13.1414 6.87173 13.8284 6.16882 14.675 5.68956C15.5217 5.19433 16.4323 4.94672 17.4068 4.94672C18.3973 4.94672 19.3158 5.19433 20.1625 5.68956C21.0092 6.16882 21.6961 6.87173 22.2233 7.79829C22.7505 8.70887 23.0141 9.81915 23.0141 11.1291C23.0141 12.4231 22.7505 13.5334 22.2233 14.4599C21.6961 15.3705 21.0092 16.0734 20.1625 16.5687C19.3158 17.0479 18.3973 17.2876 17.4068 17.2876ZM17.4068 15.0351C18.2695 15.0351 18.9484 14.6756 19.4436 13.9567C19.9389 13.2378 20.1865 12.2953 20.1865 11.1291C20.1865 9.94695 19.9389 8.99643 19.4436 8.27754C18.9484 7.55866 18.2695 7.19922 17.4068 7.19922C16.5441 7.19922 15.8652 7.55866 15.37 8.27754C14.8907 8.99643 14.6511 9.94695 14.6511 11.1291C14.6511 12.2953 14.8907 13.2378 15.37 13.9567C15.8652 14.6756 16.5441 15.0351 17.4068 15.0351ZM29.2403 17.2876C27.9783 17.2876 27.0597 16.8802 26.4846 16.0655C25.9095 15.2507 25.6219 14.1005 25.6219 12.6148V5.23427H28.3776V12.2554C28.3776 13.2299 28.5214 13.9168 28.809 14.3162C29.0965 14.7155 29.5598 14.9152 30.1988 14.9152C30.71 14.9152 31.1573 14.7874 31.5407 14.5318C31.9401 14.2762 32.3634 13.8609 32.8108 13.2858V5.23427H35.5665V17H33.314L33.0983 15.2747H33.0264C32.5152 15.8817 31.9561 16.369 31.349 16.7364C30.742 17.1038 30.0391 17.2876 29.2403 17.2876ZM39.057 17V5.23427H41.3335L41.5252 6.81581H41.621C42.1482 6.30461 42.7233 5.86529 43.3463 5.49786C43.9694 5.13043 44.6803 4.94672 45.479 4.94672C46.7411 4.94672 47.6596 5.35408 48.2347 6.16882C48.8098 6.98355 49.0974 8.13377 49.0974 9.61946V17H46.3417V9.9789C46.3417 9.00442 46.1979 8.31748 45.9103 7.9181C45.6228 7.51872 45.1515 7.31903 44.4965 7.31903C43.9853 7.31903 43.53 7.44683 43.1307 7.70244C42.7473 7.94206 42.3079 8.30151 41.8127 8.78076V17H39.057ZM56.6114 17.2876C55.2535 17.2876 54.287 16.8962 53.7119 16.1134C53.1528 15.3146 52.8732 14.2842 52.8732 13.0222V7.41488H51.1958V5.35408L53.017 5.23427L53.3525 2.02326H55.6529V5.23427H58.6483V7.41488H55.6529V13.0222C55.6529 14.396 56.2041 15.083 57.3063 15.083C57.514 15.083 57.7297 15.059 57.9533 15.0111C58.177 14.9472 58.3687 14.8833 58.5284 14.8194L59.0077 16.8562C58.6882 16.968 58.3208 17.0639 57.9054 17.1438C57.506 17.2396 57.0747 17.2876 56.6114 17.2876ZM63.461 17.2876C62.4386 17.2876 61.5999 16.968 60.9449 16.329C60.3059 15.69 59.9864 14.8593 59.9864 13.8369C59.9864 12.5749 60.5376 11.6004 61.6399 10.9135C62.7421 10.2105 64.4994 9.73129 66.9117 9.47568C66.8957 8.85265 66.728 8.31748 66.4085 7.87018C66.1049 7.4069 65.5538 7.17525 64.755 7.17525C64.1799 7.17525 63.6128 7.28708 63.0537 7.51073C62.5105 7.73439 61.9753 8.00597 61.4482 8.32547L60.4417 6.48033C61.0967 6.06498 61.8316 5.70554 62.6463 5.40201C63.477 5.09848 64.3556 4.94672 65.2822 4.94672C66.7519 4.94672 67.8462 5.38603 68.5651 6.26467C69.3 7.12733 69.6674 8.38138 69.6674 10.0268V17H67.3909L67.1992 15.706H67.1034C66.5762 16.1533 66.0091 16.5287 65.402 16.8323C64.8109 17.1358 64.1639 17.2876 63.461 17.2876ZM64.3477 15.1309C64.8269 15.1309 65.2582 15.0191 65.6416 14.7954C66.041 14.5558 66.4644 14.2363 66.9117 13.8369V11.201C65.3142 11.4087 64.2039 11.7202 63.5808 12.1356C62.9578 12.5349 62.6463 13.0302 62.6463 13.6212C62.6463 14.1484 62.806 14.5318 63.1256 14.7715C63.4451 15.0111 63.8524 15.1309 64.3477 15.1309ZM72.9653 17V5.23427H75.721V17H72.9653ZM74.3551 3.17347C73.8599 3.17347 73.4605 3.02969 73.157 2.74214C72.8534 2.45458 72.7017 2.07118 72.7017 1.59192C72.7017 1.12864 72.8534 0.753226 73.157 0.465673C73.4605 0.17812 73.8599 0.0343436 74.3551 0.0343436C74.8503 0.0343436 75.2497 0.17812 75.5533 0.465673C75.8568 0.753226 76.0085 1.12864 76.0085 1.59192C76.0085 2.07118 75.8568 2.45458 75.5533 2.74214C75.2497 3.02969 74.8503 3.17347 74.3551 3.17347ZM79.2368 17V5.23427H81.5133L81.705 6.81581H81.8008C82.328 6.30461 82.9031 5.86529 83.5261 5.49786C84.1492 5.13043 84.8601 4.94672 85.6588 4.94672C86.9209 4.94672 87.8394 5.35408 88.4145 6.16882C88.9896 6.98355 89.2772 8.13377 89.2772 9.61946V17H86.5215V9.9789C86.5215 9.00442 86.3777 8.31748 86.0901 7.9181C85.8026 7.51872 85.3313 7.31903 84.6763 7.31903C84.1651 7.31903 83.7098 7.44683 83.3105 7.70244C82.9271 7.94206 82.4877 8.30151 81.9925 8.78076V17H79.2368Z" fill="#F77E23"/>
</svg>
